<svg width="768" height="737" viewBox="0 0 768 737" fill="none" xmlns="http://www.w3.org/2000/svg">
<rect y="284" width="780" height="329" fill="#F9B300"/>
<path fill-rule="evenodd" clip-rule="evenodd" d="M-198 690.5L-157.75 677.583C-117.5 664.667 -37 638.833 43.5 628.5C124 618.167 204.5 623.333 285 636.25C365.5 649.167 446 669.833 526.5 687.917C607 706 687.5 721.5 727.75 729.25L768 737V613H727.75C687.5 613 607 613 526.5 613C446 613 365.5 613 285 613C204.5 613 124 613 43.5 613C-37 613 -117.5 613 -157.75 613H-198V690.5Z" fill="#F9B300"/>
<ellipse cx="393" cy="190" rx="557" ry="190" fill="#F9B300"/>
</svg>
