<svg width="1904" height="1096" viewBox="0 0 1904 1096" fill="none" xmlns="http://www.w3.org/2000/svg">
<path fill-rule="evenodd" clip-rule="evenodd" d="M2812 909.75L2674.96 940.792C2537.92 971.833 2263.83 1033.92 1989.75 1058.75C1715.67 1083.58 1441.58 1071.17 1167.5 1040.12C893.417 1009.08 619.333 959.417 345.25 915.958C71.1667 872.5 -202.917 835.25 -339.958 816.625L-477 798V1096H-339.958C-202.917 1096 71.1667 1096 345.25 1096C619.333 1096 893.417 1096 1167.5 1096C1441.58 1096 1715.67 1096 1989.75 1096C2263.83 1096 2537.92 1096 2674.96 1096H2812V909.75Z" fill="white"/>
<path fill-rule="evenodd" clip-rule="evenodd" d="M-477 180L-367.542 150C-258.083 120 -39.1667 60 179.75 36C398.667 12 617.583 24 836.5 54C1055.42 84 1274.33 132 1493.25 174C1712.17 216 1931.08 252 2040.54 270L2150 288V0H2040.54C1931.08 0 1712.17 0 1493.25 0C1274.33 0 1055.42 0 836.5 0C617.583 0 398.667 0 179.75 0C-39.1667 0 -258.083 0 -367.542 0H-477V180Z" fill="#FFF7E1"/>
</svg>
