<svg width="1904" height="340" viewBox="0 0 1904 340" fill="none" xmlns="http://www.w3.org/2000/svg">
<path fill-rule="evenodd" clip-rule="evenodd" d="M-477 232L-367.542 202C-258.083 172 -39.1667 112 179.75 88C398.667 64 617.583 76 836.5 106C1055.42 136 1274.33 184 1493.25 226C1712.17 268 1931.08 304 2040.54 322L2150 340V52H2040.54C1931.08 52 1712.17 52 1493.25 52C1274.33 52 1055.42 52 836.5 52C617.583 52 398.667 52 179.75 52C-39.1667 52 -258.083 52 -367.542 52H-477V232Z" fill="#F9B300"/>
<rect x="-477" width="2647" height="65" fill="#F9B300"/>
</svg>
